<?xml version="1.0" encoding="UTF-8" standalone="no"?>
<!-- Created with Inkscape (http://www.inkscape.org/) -->

<svg
   xmlns:dc="http://purl.org/dc/elements/1.1/"
   xmlns:cc="http://creativecommons.org/ns#"
   xmlns:rdf="http://www.w3.org/1999/02/22-rdf-syntax-ns#"
   xmlns:svg="http://www.w3.org/2000/svg"
   xmlns="http://www.w3.org/2000/svg"
   xmlns:sodipodi="http://sodipodi.sourceforge.net/DTD/sodipodi-0.dtd"
   xmlns:inkscape="http://www.inkscape.org/namespaces/inkscape"
   width="127.34973"
   height="122.95315"
   id="svg50961"
   version="1.1"
   inkscape:version="0.48.4 r9939"
   sodipodi:docname="logo2.svg">
  <defs
     id="defs50963" />
  <sodipodi:namedview
     id="base"
     pagecolor="#ffffff"
     bordercolor="#666666"
     borderopacity="1.0"
     inkscape:pageopacity="0.0"
     inkscape:pageshadow="2"
     inkscape:zoom="2.8"
     inkscape:cx="81.624509"
     inkscape:cy="67.605094"
     inkscape:document-units="px"
     inkscape:current-layer="layer1"
     showgrid="false"
     inkscape:window-width="1440"
     inkscape:window-height="845"
     inkscape:window-x="0"
     inkscape:window-y="27"
     inkscape:window-maximized="1"
     fit-margin-top="0"
     fit-margin-left="0"
     fit-margin-right="0"
     fit-margin-bottom="0" />
  <metadata
     id="metadata50966">
    <rdf:RDF>
      <cc:Work
         rdf:about="">
        <dc:format>image/svg+xml</dc:format>
        <dc:type
           rdf:resource="http://purl.org/dc/dcmitype/StillImage" />
        <dc:title></dc:title>
      </cc:Work>
    </rdf:RDF>
  </metadata>
  <g
     inkscape:label="Layer 1"
     inkscape:groupmode="layer"
     id="layer1"
     transform="translate(-125.61627,-64.983124)">
    <path
       style="fill:#2ca089;fill-opacity:1"
       d="m 181.24912,187.36741 c -28.42997,-3.30432 -52.34231,-26.71898 -55.27008,-54.11976 -3.04054,-28.45624 13.22182,-53.693041 41.65101,-64.636251 6.1788,-2.3784 14.56366,-3.64217 21.99409,-3.62816 7.26437,0.0137 15.31021,1.24976 21.48901,3.62816 19.56061,7.52944 33.47391,21.72741 39.26915,40.072591 4.96273,15.70981 2.63815,35.22294 -5.78606,48.56972 -7.44622,11.79732 -19.5982,21.61431 -32.99919,26.65843 -5.79907,2.18276 -8.63886,2.73957 -20.22545,3.96564 -1.65,0.1746 -6.20512,-0.0551 -10.12248,-0.51037 z m 23.69246,-29.26821 c 9.32177,-3.29086 17.19675,-9.01372 27.75491,-20.16989 5.04631,-5.33212 9.17511,-9.99908 9.17511,-10.37102 0,-1.62809 -13.54133,-15.29972 -20.19795,-20.39231 -14.85892,-11.367681 -28.98164,-15.423366 -42.91385,-12.323741 -2.40507,0.535078 -5.69197,1.434744 -8.69976,2.813261 -2.43947,1.118041 -4.66479,2.67328 -6.33045,3.63133 -7.18905,4.13496 -26.85799,22.9473 -26.85799,25.70447 0,2.29799 14.07023,16.6658 21.5,21.95472 12.29827,8.75459 19.48618,11.36203 31.5,11.42677 6.42321,0.0346 10.10524,-0.52089 15.06998,-2.27359 z m -25.28471,-20.49764 c -3.79871,-3.5434 -4.16831,-4.34128 -4.51642,-9.75 -0.57354,-8.91127 3.80831,-14.71765 12.12538,-16.06733 3.44243,-0.55863 3.60565,-0.45463 3.60307,2.29571 -0.002,2.28992 -0.75836,3.29108 -3.68668,4.88084 -4.22569,2.29409 -10.73224,10.9589 -9.88572,13.16489 0.31298,0.81561 1.35791,1.33041 2.32208,1.14401 1.28644,-0.24871 1.75302,-1.30491 1.75302,-3.96836 0,-3.99807 2.26528,-7.15068 6.83664,-9.51463 2.52678,-1.30664 3.21903,-1.29011 6.25236,0.1493 3.9067,1.85385 4.02795,2.18558 1.72784,4.72718 -1.57754,1.74316 -1.57754,1.96548 0,3.54302 1.5128,1.5128 1.83844,1.52788 3.21731,0.14901 1.37765,-1.37765 1.37807,-1.83306 0.004,-4.46429 -1.40047,-2.68193 -1.38319,-3.03893 0.20408,-4.21457 2.87371,-2.12847 4.49151,1.16775 4.01244,8.17522 -0.36882,5.3949 -0.751,6.21566 -4.54001,9.75 -3.77702,3.52315 -4.62302,3.85922 -9.71476,3.85922 -5.09174,0 -5.93774,-0.33607 -9.71473,-3.85922 z"
       id="path51034"
       inkscape:connector-curvature="0"
       sodipodi:nodetypes="sssassssssssssssssssscsscssssssssscsssscc" />
    <ellipse
       transform="matrix(3.8786762,0,0,3.8786762,-176.98703,-388.97539)"
       d="m 101.28865,132.86385 c 0,3.93521 -3.087623,7.12532 -6.8964,7.12532 -3.808777,0 -6.8964,-3.19011 -6.8964,-7.12532 0,-3.93521 3.087623,-7.12533 6.8964,-7.12533 3.808777,0 6.8964,3.19012 6.8964,7.12533 z"
       sodipodi:ry="7.1253271"
       sodipodi:rx="6.8964005"
       sodipodi:cy="132.86385"
       sodipodi:cx="94.39225"
       style="opacity:0.5;fill:#5599ff;fill-opacity:1;stroke:#f7f7f7;stroke-width:1.18615806;stroke-miterlimit:4;stroke-opacity:1;stroke-dasharray:none;stroke-dashoffset:0"
       id="path854"
       cx="94.39225"
       cy="132.86385"
       rx="6.8964005"
       ry="7.1253271" />
    <ellipse
       transform="matrix(3.8954026,0,0,3.8954026,-178.73264,-390.7588)"
       d="m 97.995136,132.72829 c 0,2.01126 -1.578069,3.64172 -3.524715,3.64172 -1.946647,0 -3.524716,-1.63046 -3.524716,-3.64172 0,-2.01127 1.578069,-3.64172 3.524716,-3.64172 1.946646,0 3.524715,1.63045 3.524715,3.64172 z"
       sodipodi:ry="3.6417186"
       sodipodi:rx="3.5247154"
       sodipodi:cy="132.72829"
       sodipodi:cx="94.470421"
       style="fill:#262626;fill-opacity:1;stroke:#292929;stroke-width:0.60623938;stroke-miterlimit:4;stroke-opacity:1;stroke-dasharray:none;stroke-dashoffset:0"
       id="path854-6"
       cx="94.470421"
       cy="132.72829"
       rx="3.5247154"
       ry="3.6417186" />
    <g
       transform="matrix(3.543307,0,0,3.543307,-146.0004,-344.70705)"
       id="g51135">
      <circle
         r="0.65855014"
         cy="132.71277"
         cx="96.634636"
         id="path871-7-5"
         style="fill:#ffffff;fill-opacity:1;stroke:none"
         sodipodi:cx="96.634636"
         sodipodi:cy="132.71277"
         sodipodi:rx="0.65855014"
         sodipodi:ry="0.65855014"
         d="m 97.293186,132.71277 c 0,0.36371 -0.294843,0.65855 -0.65855,0.65855 -0.363707,0 -0.65855,-0.29484 -0.65855,-0.65855 0,-0.36371 0.294843,-0.65855 0.65855,-0.65855 0.363707,0 0.65855,0.29484 0.65855,0.65855 z" />
      <g
         id="g51128">
        <circle
           d="m 97.845236,129.58017 c 0,0.84805 -0.687479,1.53553 -1.535528,1.53553 -0.848049,0 -1.535529,-0.68748 -1.535529,-1.53553 0,-0.84805 0.68748,-1.53553 1.535529,-1.53553 0.848049,0 1.535528,0.68748 1.535528,1.53553 z"
           sodipodi:ry="1.5355283"
           sodipodi:rx="1.5355283"
           sodipodi:cy="129.58017"
           sodipodi:cx="96.309708"
           style="fill:#ffffff;fill-opacity:1;stroke:none"
           id="path871"
           cx="96.309708"
           cy="129.58017"
           r="1.5355283" />
        <circle
           d="m 92.574215,133.82358 c 0,0.36371 -0.294843,0.65855 -0.65855,0.65855 -0.363708,0 -0.65855,-0.29484 -0.65855,-0.65855 0,-0.36371 0.294842,-0.65855 0.65855,-0.65855 0.363707,0 0.65855,0.29484 0.65855,0.65855 z"
           sodipodi:ry="0.65855014"
           sodipodi:rx="0.65855014"
           sodipodi:cy="133.82358"
           sodipodi:cx="91.915665"
           style="fill:#ffffff;fill-opacity:1;stroke:none"
           id="path871-7"
           cx="91.915665"
           cy="133.82358"
           r="0.65855014" />
        <path
           style="fill:none;stroke:#ffffff;stroke-width:0.26458332px;stroke-linecap:butt;stroke-linejoin:miter;stroke-opacity:1"
           d="m 95.114542,130.42426 c 0,0 -1.30294,0.28398 -2.088044,1.08579 -0.785103,0.80181 -0.985557,1.50339 -1.018963,1.73725"
           id="path888"
           inkscape:connector-curvature="0" />
        <path
           style="fill:none;stroke:#ffffff;stroke-width:0.26458332px;stroke-linecap:butt;stroke-linejoin:miter;stroke-opacity:1"
           d="m 96.434186,131.04233 c 0,0 0.250563,0.30067 0.317381,0.63476 0.06682,0.33409 -0.08352,1.1526 -0.08352,1.1526"
           id="path907"
           inkscape:connector-curvature="0" />
        <path
           style="fill:none;stroke:#ffffff;stroke-width:0.26458332px;stroke-linecap:butt;stroke-linejoin:miter;stroke-opacity:1"
           d="m 97.494232,129.67466 c 1.27567,-0.47247 1.602347,-1.27567 1.602347,-1.27567 0,0 0.494729,-0.41356 0.72859,-1.31559"
           id="path920"
           inkscape:connector-curvature="0"
           sodipodi:nodetypes="cc" />
      </g>
    </g>
  </g>
</svg>
